<svg width="64" height="48" viewBox="0 0 64 48" fill="none" xmlns="http://www.w3.org/2000/svg">
<path d="M36.0245 37.8611C36.0245 37.8611 30.0157 35.6092 25.8128 27.3938C21.6098 19.1784 27.7707 9.1421 27.7707 9.1421L27.3216 8.45793C25.3211 7.79136 23.1796 7.42975 20.9529 7.42975C9.91433 7.42975 0.965698 16.3063 0.965698 27.2561C0.965698 38.2059 9.9142 47.0825 20.9529 47.0825C27.3642 47.0825 33.0698 44.0875 36.7272 39.4317L36.0245 37.8611Z" fill="#E39B74"/>
<path d="M7.86616 27.2561C7.86616 17.4739 15.0084 9.34726 24.4021 7.72516C23.2815 7.53165 22.1292 7.42975 20.9529 7.42975C9.91433 7.42975 0.965698 16.3063 0.965698 27.2561C0.965698 38.2059 9.9142 47.0825 20.9529 47.0825C22.1295 47.0825 23.2821 46.9807 24.4029 46.7872C15.0088 45.1654 7.86616 37.0386 7.86616 27.2561Z" fill="#DD8858"/>
<path d="M62.677 16.6783C62.553 16.0734 61.9176 15.732 61.3251 15.9206C59.0849 16.6339 56.5969 15.5372 55.6505 13.3721C55.4516 12.9168 54.9579 12.6541 54.4714 12.7693C49.5591 13.9311 44.6617 10.6731 43.8424 5.76504C43.7632 5.29037 43.3513 4.94388 42.867 4.91562C41.2635 4.82178 39.9067 3.68537 39.5331 2.14757C39.3993 1.59716 38.837 1.25749 38.2829 1.39323C29.4183 3.56451 22.884 11.6029 23.1088 21.1174C23.3608 31.7796 32.1948 40.3918 42.946 40.467C54.0509 40.5447 63.0776 31.6386 63.0776 20.6412C63.0775 19.2838 62.9393 17.9588 62.677 16.6783Z" fill="#E39B74"/>
<path d="M30.0094 21.1173C29.83 13.5324 33.9464 6.8857 40.1144 3.40162C39.8463 3.03059 39.645 2.60749 39.5331 2.14732C39.3993 1.59691 38.837 1.25724 38.2829 1.39299C29.4182 3.56426 22.884 11.6026 23.1088 21.1172C23.3608 31.7793 32.1948 40.3915 42.9459 40.4668C44.1766 40.4754 45.3816 40.3732 46.5517 40.1705C37.3457 38.5708 30.2351 30.6668 30.0094 21.1173Z" fill="#DD8858"/>
<path d="M58.6461 6.13179C59.6783 6.13179 60.515 5.30176 60.515 4.27787C60.515 3.25398 59.6783 2.42395 58.6461 2.42395C57.6139 2.42395 56.7771 3.25398 56.7771 4.27787C56.7771 5.30176 57.6139 6.13179 58.6461 6.13179Z" fill="#DD8858"/>
<path d="M50.4351 6.07002C51.8627 6.07002 53.0199 4.92208 53.0199 3.50602C53.0199 2.08996 51.8627 0.942017 50.4351 0.942017C49.0076 0.942017 47.8503 2.08996 47.8503 3.50602C47.8503 4.92208 49.0076 6.07002 50.4351 6.07002Z" fill="#DD8858"/>
<path d="M58.7082 4.27787C58.7082 3.60498 59.0708 3.01763 59.6116 2.69271C59.3295 2.52325 58.9999 2.42395 58.6461 2.42395C57.6138 2.42395 56.7771 3.25403 56.7771 4.27787C56.7771 5.30171 57.6139 6.13179 58.6461 6.13179C58.9999 6.13179 59.3295 6.03249 59.6116 5.86303C59.0707 5.53812 58.7082 4.95076 58.7082 4.27787Z" fill="#CB6C35"/>
<path d="M50.4351 3.50602C50.4351 2.55755 50.9557 1.73131 51.7275 1.28788C51.3469 1.06921 50.9064 0.942017 50.4351 0.942017C49.0076 0.942017 47.8503 2.08995 47.8503 3.50602C47.8503 4.92209 49.0076 6.07002 50.4351 6.07002C50.9065 6.07002 51.3471 5.94283 51.7275 5.72415C50.9558 5.2806 50.4351 4.45449 50.4351 3.50602Z" fill="#CB6C35"/>
<path d="M15.1214 37.1668C18.1194 37.1668 20.5497 34.756 20.5497 31.7822C20.5497 28.8084 18.1194 26.3976 15.1214 26.3976C12.1234 26.3976 9.69312 28.8084 9.69312 31.7822C9.69312 34.756 12.1234 37.1668 15.1214 37.1668Z" fill="#CB6C35"/>
<path d="M2.67222 27.3936C4.47569 27.3936 5.93774 25.9433 5.93774 24.1543C5.93774 22.3654 4.47569 20.9151 2.67222 20.9151C2.43689 20.9151 2.20757 20.9404 1.98637 20.9872C1.35888 22.8563 1.00484 24.8491 0.969971 26.9189C1.46574 27.2199 2.04848 27.3936 2.67222 27.3936Z" fill="#AE5E2E"/>
<path d="M14.0636 20.7695C15.8561 20.7695 17.3092 19.3281 17.3092 17.55C17.3092 15.772 15.8561 14.3306 14.0636 14.3306C12.2712 14.3306 10.8181 15.772 10.8181 17.55C10.8181 19.3281 12.2712 20.7695 14.0636 20.7695Z" fill="#CB6C35"/>
<path d="M28.369 40.4675C26.3389 40.4675 24.6931 42.1 24.6931 44.1138C24.6931 45.0447 25.0453 45.8936 25.6239 46.538C27.9419 45.9875 30.1019 45.0348 32.0275 43.7609C31.8485 41.9127 30.2792 40.4675 28.369 40.4675Z" fill="#CB6C35"/>
<path d="M32.0442 30.238C32.0442 27.5966 29.8855 25.4553 27.2228 25.4553C26.0043 25.4553 24.8921 25.9047 24.0433 26.6442C25.0319 29.7125 26.7564 32.4593 29.008 34.6805C30.7867 33.9765 32.0442 32.2535 32.0442 30.238Z" fill="#AE5E2E"/>
<path d="M36.0244 23.1152C37.4093 23.1152 38.532 22.0016 38.532 20.6278C38.532 19.2541 37.4093 18.1404 36.0244 18.1404C34.6395 18.1404 33.5168 19.2541 33.5168 20.6278C33.5168 22.0016 34.6395 23.1152 36.0244 23.1152Z" fill="#CB6C35"/>
<path d="M48.7327 33.4515C51.849 33.4515 54.3753 30.9456 54.3753 27.8543C54.3753 24.763 51.849 22.2571 48.7327 22.2571C45.6164 22.2571 43.0901 24.763 43.0901 27.8543C43.0901 30.9456 45.6164 33.4515 48.7327 33.4515Z" fill="#CB6C35"/>
<path d="M49.7815 12.5795C47.1803 11.7392 45.0374 9.70872 44.1562 7.03265C42.3869 7.61418 41.1101 9.26728 41.1101 11.2173C41.1101 13.6521 43.0999 15.6259 45.5545 15.6259C47.5297 15.6259 49.2029 14.3474 49.7815 12.5795Z" fill="#CB6C35"/>
<path d="M13.2766 31.782C13.2766 29.4314 14.7956 27.4338 16.9125 26.6993C16.3513 26.5045 15.7485 26.3974 15.1202 26.3974C12.1222 26.3974 9.69189 28.8082 9.69189 31.782C9.69189 34.7559 12.1222 37.1666 15.1202 37.1666C15.7484 37.1666 16.3513 37.0595 16.9125 36.8648C14.7956 36.1303 13.2766 34.1327 13.2766 31.782Z" fill="#AE5E2E"/>
<path d="M13.6095 17.5499C13.6095 16.2678 14.3651 15.161 15.4585 14.6431C15.0355 14.4428 14.5619 14.3303 14.0619 14.3303C12.2695 14.3303 10.8164 15.7717 10.8164 17.5497C10.8164 19.3278 12.2695 20.7691 14.0619 20.7691C14.5619 20.7691 15.0355 20.6567 15.4585 20.4564C14.3651 19.9387 13.6095 18.8319 13.6095 17.5499Z" fill="#AE5E2E"/>
<path d="M27.485 44.1137C27.485 42.5905 28.4269 41.286 29.7643 40.7406C29.3336 40.5649 28.8623 40.4673 28.3678 40.4673C26.3377 40.4673 24.6919 42.0999 24.6919 44.1137C24.6919 45.0446 25.0441 45.8935 25.6227 46.5379C26.4091 46.351 27.1768 46.1169 27.9239 45.8407C27.6444 45.3266 27.485 44.7389 27.485 44.1137Z" fill="#AE5E2E"/>
<path d="M36.3095 20.6276C36.3095 19.7668 36.7505 19.0083 37.4205 18.5617C37.0213 18.2957 36.5409 18.1403 36.0239 18.1403C34.639 18.1403 33.5164 19.254 33.5164 20.6276C33.5164 22.0013 34.6391 23.115 36.0239 23.115C36.5409 23.115 37.0213 22.9596 37.4205 22.6936C36.7505 22.247 36.3095 21.4885 36.3095 20.6276Z" fill="#AE5E2E"/>
<path d="M46.6742 27.854C46.6742 25.3845 48.2872 23.29 50.5246 22.5467C49.9613 22.3597 49.3591 22.2568 48.7322 22.2568C45.6159 22.2568 43.0896 24.7628 43.0896 27.854C43.0896 30.9452 45.6159 33.4512 48.7322 33.4512C49.3591 33.4512 49.9612 33.3483 50.5246 33.1613C48.2871 32.4179 46.6742 30.3234 46.6742 27.854Z" fill="#AE5E2E"/>
<path d="M43.9025 11.217C43.9025 10.2084 44.2448 9.27968 44.8194 8.53712C44.5534 8.06332 44.3294 7.56063 44.1554 7.03241C42.3862 7.61394 41.1094 9.26703 41.1094 11.217C41.1094 13.6519 43.0992 15.6257 45.5538 15.6257C46.0423 15.6257 46.5122 15.5472 46.9517 15.4028C45.1808 14.8222 43.9025 13.1683 43.9025 11.217Z" fill="#AE5E2E"/>
<path d="M63.5666 16.4809C63.5666 16.4808 63.5666 16.4808 63.5666 16.4809C63.3326 15.3387 62.1379 14.6636 61.0098 15.0231C59.2184 15.5935 57.2292 14.7005 56.4818 12.9902C56.0982 12.1125 55.1491 11.6338 54.2252 11.8526C49.7812 12.9036 45.4569 9.90525 44.7383 5.601C44.5877 4.69853 43.8291 4.02998 42.8934 3.97531C41.7121 3.90613 40.6931 3.05994 40.4155 1.91746C40.1599 0.865481 39.0895 0.218375 38.0294 0.478457C33.7185 1.5344 29.8165 3.97022 26.966 7.36802C13.5172 3.3494 0 13.3919 0 27.2438C0 38.6888 9.38666 47.9999 20.9245 47.9999C27.1997 47.9999 33.0293 45.2754 37.0229 40.5022C52.1754 45.0472 66.716 31.8532 63.5666 16.4809V16.4809ZM43.6193 8.28401C44.5399 10.2915 46.2313 12.0708 48.4841 13.0761C47.8517 14.063 46.7478 14.6838 45.5257 14.6838C43.5919 14.6838 42.0188 13.1232 42.0188 11.2049C42.0188 10.0033 42.6365 8.91389 43.6193 8.28401ZM2.67165 21.8332C3.94262 21.8482 4.97189 22.8781 4.97189 24.1423C4.97189 25.7128 3.41186 26.8377 1.89783 26.3306C1.96906 24.8443 2.21738 23.339 2.67165 21.8332V21.8332ZM25.9741 45.4693C25.7315 45.057 25.6014 44.5859 25.6014 44.1014C25.6014 42.6036 26.8299 41.3848 28.3399 41.3848C29.572 41.3848 30.6181 42.1805 30.9603 43.3061C29.4042 44.2658 27.7318 44.9914 25.9741 45.4693ZM32.5506 42.2221C31.8282 40.6164 30.2116 39.5255 28.3399 39.5255C25.7963 39.5255 23.7268 41.5783 23.7268 44.1016C23.7268 44.7188 23.8528 45.3228 24.0906 45.8811C12.7029 47.7587 2.48695 39.3326 1.90133 28.2436C4.502 28.7055 6.8466 26.713 6.8466 24.1424C6.8466 22.0718 5.31669 20.3497 3.31939 20.0281C6.94283 11.3615 16.4781 6.55381 25.756 8.96075C18.3004 19.8397 22.8185 34.8025 35.1309 39.834C34.3385 40.7154 33.4744 41.5133 32.5506 42.2221ZM25.1303 26.9633C25.7454 26.5797 26.4597 26.3728 27.1944 26.3728C29.3362 26.3728 31.0786 28.1012 31.0786 30.2257C31.0786 31.5967 30.3605 32.8314 29.2065 33.5213C27.4294 31.6465 26.0273 29.4192 25.1303 26.9633V26.9633ZM30.5886 34.8422C32.0575 33.7853 32.953 32.0903 32.953 30.2256C32.953 27.0759 30.3696 24.5132 27.1943 24.5132C26.2745 24.5132 25.3767 24.7328 24.5704 25.1429C22.0356 15.0936 28.3746 4.75828 38.4787 2.28341C38.5298 2.27114 38.5809 2.30362 38.593 2.35283C39.062 4.28398 40.785 5.71431 42.783 5.83133C42.836 5.83443 42.8823 5.86666 42.8887 5.9046C42.9214 6.10047 42.9623 6.29435 43.0073 6.48699C41.2648 7.39976 40.1441 9.20025 40.1441 11.2048C40.1441 14.1484 42.5581 16.5432 45.5256 16.5432C47.5608 16.5432 49.3816 15.4209 50.2964 13.6764C51.724 13.9991 53.2191 14.002 54.6598 13.6612C54.6953 13.6526 54.7413 13.6833 54.7615 13.7295C55.8879 16.3068 58.8841 17.6527 61.5825 16.7933C61.6409 16.7749 61.7169 16.7925 61.7294 16.851C65.3443 34.5022 44.2921 46.7094 30.5886 34.8422V34.8422Z" fill="#1D1D1B"/>
<path d="M58.6178 7.0494C60.1652 7.0494 61.424 5.80068 61.424 4.26573C61.424 2.73077 60.1652 1.48193 58.6178 1.48193C57.0704 1.48193 55.8115 2.73077 55.8115 4.26573C55.8115 5.80068 57.0704 7.0494 58.6178 7.0494ZM58.6178 3.34143C59.1314 3.34143 59.5494 3.7561 59.5494 4.26573C59.5494 4.77535 59.1314 5.1899 58.6178 5.1899C58.1041 5.1899 57.6861 4.77535 57.6861 4.26573C57.6861 3.7561 58.1041 3.34143 58.6178 3.34143Z" fill="#1D1D1B"/>
<path d="M50.4069 6.9875C52.3489 6.9875 53.9289 5.42019 53.9289 3.49375C53.9289 1.56731 52.3489 0 50.4069 0C48.4648 0 46.8848 1.56731 46.8848 3.49375C46.8848 5.42019 48.4648 6.9875 50.4069 6.9875ZM50.4069 1.85962C51.3153 1.85962 52.0544 2.59276 52.0544 3.49388C52.0544 4.39499 51.3153 5.12813 50.4069 5.12813C49.4984 5.12813 48.7593 4.39499 48.7593 3.49388C48.7593 2.59276 49.4984 1.85962 50.4069 1.85962Z" fill="#1D1D1B"/>
<path d="M14.0336 21.6875C16.3401 21.6875 18.2166 19.8261 18.2166 17.5382C18.2166 15.2503 16.3401 13.389 14.0336 13.389C11.7272 13.389 9.85071 15.2504 9.85071 17.5382C9.85071 19.826 11.7272 21.6875 14.0336 21.6875ZM14.0336 15.2485C15.3065 15.2485 16.342 16.2757 16.342 17.5382C16.342 18.8007 15.3065 19.828 14.0336 19.828C12.7608 19.828 11.7253 18.8008 11.7253 17.5382C11.7253 16.2756 12.7608 15.2485 14.0336 15.2485Z" fill="#1D1D1B"/>
<path d="M35.9961 17.1984C34.0967 17.1984 32.5513 18.7314 32.5513 20.6156C32.5513 22.4997 34.0967 24.0327 35.9961 24.0327C37.8956 24.0327 39.441 22.4997 39.441 20.6156C39.441 18.7314 37.8956 17.1984 35.9961 17.1984ZM35.9961 22.1733C35.1302 22.1733 34.4259 21.4745 34.4259 20.6157C34.4259 19.7568 35.1303 19.058 35.9961 19.058C36.8619 19.058 37.5664 19.7568 37.5664 20.6157C37.5664 21.4745 36.8621 22.1733 35.9961 22.1733Z" fill="#1D1D1B"/>
<path d="M15.093 25.4559C11.583 25.4559 8.72742 28.2886 8.72742 31.7703C8.72742 34.1938 10.0902 36.3652 12.2842 37.4371C12.749 37.6639 13.3105 37.4744 13.5392 37.0137C13.7679 36.5531 13.5768 35.9957 13.1124 35.7688C11.5639 35.0124 10.602 33.4803 10.602 31.7703C10.602 29.3139 12.6167 27.3154 15.093 27.3154C17.5693 27.3154 19.584 29.3139 19.584 31.7703C19.584 33.6162 18.4639 35.2443 16.7305 35.9182C16.2485 36.1057 16.0109 36.645 16.1999 37.1232C16.3888 37.6014 16.9327 37.8369 17.4145 37.6495C19.8712 36.6944 21.4586 34.3866 21.4586 31.7703C21.4585 28.2884 18.603 25.4559 15.093 25.4559V25.4559Z" fill="#1D1D1B"/>
<path d="M48.7044 23.1744C50.6034 23.1744 52.3066 24.2966 53.0435 26.0332C53.2442 26.5065 53.7938 26.7287 54.2709 26.5295C54.7481 26.3303 54.972 25.7852 54.7713 25.3119C53.741 22.8839 51.3597 21.3149 48.7044 21.3149C45.0762 21.3149 42.1245 24.2429 42.1245 27.8419C42.1245 31.4409 45.0762 34.3689 48.7044 34.3689C51.3597 34.3689 53.7412 32.8 54.7713 30.3719C54.972 29.8988 54.7481 29.3536 54.2709 29.1543C53.7944 28.9553 53.2444 29.1773 53.0435 29.6506C52.3066 31.3871 50.6036 32.5093 48.7044 32.5093C46.1099 32.5093 43.9991 30.4155 43.9991 27.8418C43.999 25.2682 46.1099 23.1744 48.7044 23.1744V23.1744Z" fill="#1D1D1B"/>
</svg>
